<svg width="64" height="64" viewBox="0 0 64 64" fill="none" xmlns="http://www.w3.org/2000/svg">
<circle cx="32" cy="32" r="32" fill="#F08080"/>
<path d="M45.9062 40.0469C45.9688 40.3594 46 40.6771 46 41C46 41.3229 45.9688 41.6406 45.9062 41.9531L47.8438 42.75L47.0781 44.6094L45.1406 43.7969C44.776 44.3281 44.3281 44.776 43.7969 45.1406L44.6094 47.0781L42.75 47.8438L41.9531 45.9062C41.6406 45.9688 41.3229 46 41 46C40.6771 46 40.3594 45.9688 40.0469 45.9062L39.25 47.8438L37.3906 47.0781L38.2031 45.1406C37.6719 44.776 37.224 44.3281 36.8594 43.7969L34.9219 44.6094L34.1562 42.75L36.0938 41.9531C36.0312 41.6406 36 41.3229 36 41C36 40.6771 36.0312 40.3594 36.0938 40.0469L34.1562 39.25L34.9219 37.3906L36.8594 38.2031C37.224 37.6719 37.6719 37.224 38.2031 36.8594L37.3906 34.9219L39.25 34.1562L40.0469 36.0938C40.3594 36.0312 40.6771 36 41 36C41.3229 36 41.6406 36.0312 41.9531 36.0938L42.75 34.1562L44.6094 34.9219L43.7969 36.8594C44.3281 37.224 44.776 37.6719 45.1406 38.2031L47.0781 37.3906L47.8438 39.25L45.9062 40.0469ZM41 44C41.4167 44 41.8073 43.9219 42.1719 43.7656C42.5365 43.6094 42.8542 43.3958 43.125 43.125C43.3958 42.8542 43.6094 42.5365 43.7656 42.1719C43.9219 41.8073 44 41.4167 44 41C44 40.5833 43.9219 40.1927 43.7656 39.8281C43.6094 39.4635 43.3958 39.1458 43.125 38.875C42.8542 38.6042 42.5365 38.3906 42.1719 38.2344C41.8073 38.0781 41.4167 38 41 38C40.5833 38 40.1927 38.0781 39.8281 38.2344C39.4635 38.3906 39.1458 38.6042 38.875 38.875C38.6042 39.1458 38.3906 39.4635 38.2344 39.8281C38.0781 40.1927 38 40.5833 38 41C38 41.4167 38.0781 41.8073 38.2344 42.1719C38.3906 42.5365 38.6042 42.8542 38.875 43.125C39.1458 43.3958 39.4635 43.6094 39.8281 43.7656C40.1927 43.9219 40.5833 44 41 44ZM34 26V18H20V46H34V48H18V16H35.4219L44 24.5781V32H42V26H34ZM36 24H40.5781L36 19.4219V24Z" fill="white"/>
</svg>
