<svg width="64" height="64" viewBox="0 0 64 64" fill="none" xmlns="http://www.w3.org/2000/svg">
<circle cx="32" cy="32" r="32" fill="#F08080"/>
<path d="M45 23.25H19C18.5359 23.25 18.0908 23.4344 17.7626 23.7626C17.4344 24.0908 17.25 24.5359 17.25 25V39C17.25 39.4641 17.4344 39.9092 17.7626 40.2374C18.0908 40.5656 18.5359 40.75 19 40.75H45C45.4641 40.75 45.9092 40.5656 46.2374 40.2374C46.5656 39.9092 46.75 39.4641 46.75 39V25C46.75 24.5359 46.5656 24.0908 46.2374 23.7626C45.9092 23.4344 45.4641 23.25 45 23.25ZM26.2875 39.25L18.75 32.6625V31.3375L26.2875 24.75H37.7125L45.25 31.3375V32.6625L37.7125 39.25H26.2875ZM45.25 25V29.35L40 24.75H45C45.0663 24.75 45.1299 24.7763 45.1768 24.8232C45.2237 24.8701 45.25 24.9337 45.25 25ZM19 24.75H24L18.75 29.35V25C18.75 24.9337 18.7763 24.8701 18.8232 24.8232C18.8701 24.7763 18.9337 24.75 19 24.75ZM18.75 39V34.65L24 39.25H19C18.9337 39.25 18.8701 39.2237 18.8232 39.1768C18.7763 39.1299 18.75 39.0663 18.75 39ZM45 39.25H40L45.25 34.65V39C45.25 39.0663 45.2237 39.1299 45.1768 39.1768C45.1299 39.2237 45.0663 39.25 45 39.25ZM32 27.25C31.0605 27.25 30.1422 27.5286 29.361 28.0505C28.5799 28.5725 27.9711 29.3143 27.6116 30.1823C27.2521 31.0502 27.158 32.0053 27.3413 32.9267C27.5245 33.8481 27.9769 34.6945 28.6412 35.3588C29.3055 36.0231 30.1519 36.4754 31.0733 36.6587C31.9947 36.842 32.9498 36.7479 33.8177 36.3884C34.6857 36.0289 35.4275 35.4201 35.9495 34.639C36.4714 33.8578 36.75 32.9395 36.75 32C36.75 30.7402 36.2496 29.532 35.3588 28.6412C34.468 27.7504 33.2598 27.25 32 27.25ZM32 35.25C31.3572 35.25 30.7289 35.0594 30.1944 34.7023C29.6599 34.3452 29.2434 33.8376 28.9974 33.2437C28.7514 32.6499 28.687 31.9964 28.8124 31.366C28.9378 30.7355 29.2474 30.1564 29.7019 29.7019C30.1564 29.2474 30.7355 28.9378 31.366 28.8124C31.9964 28.687 32.6499 28.7514 33.2437 28.9974C33.8376 29.2434 34.3452 29.6599 34.7023 30.1944C35.0594 30.7289 35.25 31.3572 35.25 32C35.2467 32.8609 34.9032 33.6857 34.2945 34.2945C33.6857 34.9032 32.8609 35.2467 32 35.25Z" fill="white"/>
</svg>
