<svg width="64" height="64" viewBox="0 0 64 64" fill="none" xmlns="http://www.w3.org/2000/svg">
<circle cx="32" cy="32" r="32" fill="#F08080"/>
<path d="M32.3202 19.952C32.1721 19.952 32.0258 19.9851 31.8921 20.0487C31.7583 20.1124 31.6404 20.205 31.5469 20.32L31.4696 20.3773C30.0198 19.9361 28.4776 19.8956 27.0066 20.2601C25.5356 20.6247 24.1908 21.3807 23.1149 22.448C22.1613 23.3923 21.4521 24.5549 21.0488 25.835C20.6455 27.1151 20.5602 28.4742 20.8002 29.7946L20.7802 29.8146L19.5029 31.0826C19.2391 31.344 19.0298 31.655 18.8869 31.9977C18.744 32.3404 18.6704 32.708 18.6704 33.0793C18.6704 33.4506 18.744 33.8182 18.8869 34.1609C19.0298 34.5036 19.2391 34.8146 19.5029 35.076C19.8131 35.3841 20.1902 35.6166 20.6047 35.7556C21.0193 35.8946 21.4603 35.9362 21.8936 35.8773C22.0481 36.4395 22.3719 36.9404 22.8211 37.3121C23.2703 37.6838 23.8231 37.9081 24.4042 37.9546C24.464 38.6383 24.7693 39.2773 25.2637 39.7533C25.7581 40.2293 26.4081 40.5102 27.0936 40.544C27.1282 41.22 27.4042 41.884 27.9229 42.3986C28.9362 43.4066 30.5256 43.4933 31.6389 42.6613L32.1549 43.1733C32.692 43.7055 33.4175 44.004 34.1736 44.004C34.9297 44.004 35.6552 43.7055 36.1922 43.1733C36.6856 42.6826 36.9616 42.056 37.0189 41.416C37.6842 41.3596 38.3084 41.0704 38.7815 40.5992C39.2547 40.128 39.5465 39.5051 39.6056 38.84C40.1917 38.7861 40.7465 38.5513 41.1932 38.1682C41.6399 37.785 41.9564 37.2724 42.0989 36.7013C42.5257 36.7524 42.9585 36.7063 43.3649 36.5664C43.7713 36.4264 44.1407 36.1963 44.4456 35.8933C44.7091 35.632 44.9183 35.3211 45.0611 34.9785C45.2039 34.6359 45.2774 34.2684 45.2774 33.8973C45.2774 33.5262 45.2039 33.1587 45.0611 32.8161C44.9183 32.4735 44.7091 32.1626 44.4456 31.9013L43.3349 30.796L43.5642 29.908C44.0604 27.9755 43.8105 25.9271 42.8642 24.1706C42.1758 22.8955 41.1549 21.8305 39.9101 21.0887C38.6652 20.3469 37.2427 19.9559 35.7936 19.9573H33.6509C33.5594 19.9533 33.4678 19.9515 33.3762 19.952H32.3216H32.3202ZM36.2202 26.5453L40.8389 31.1346L40.8429 31.14L40.8616 31.1573L43.0282 33.3106C43.1056 33.3875 43.1671 33.4789 43.209 33.5796C43.2509 33.6803 43.2725 33.7882 43.2725 33.8973C43.2725 34.0064 43.2509 34.1144 43.209 34.215C43.1671 34.3157 43.1056 34.4071 43.0282 34.484C42.871 34.6395 42.6587 34.7267 42.4376 34.7267C42.2164 34.7267 42.0042 34.6395 41.8469 34.484L39.6802 32.3306C39.4915 32.1437 39.2366 32.0388 38.9709 32.0388C38.7052 32.0388 38.4503 32.1437 38.2616 32.3306L38.2402 32.3533C38.1472 32.4455 38.0733 32.5553 38.0228 32.6762C37.9724 32.7972 37.9465 32.9269 37.9465 33.058C37.9465 33.189 37.9724 33.3188 38.0228 33.4397C38.0733 33.5606 38.1472 33.6704 38.2402 33.7626L39.9282 35.4413C40.0056 35.5181 40.0671 35.6095 40.109 35.7102C40.1509 35.8109 40.1725 35.9189 40.1725 36.028C40.1725 36.137 40.1509 36.245 40.109 36.3457C40.0671 36.4464 40.0056 36.5378 39.9282 36.6146C39.7859 36.7563 39.5974 36.8423 39.3971 36.857C39.1967 36.8717 38.9978 36.8141 38.8362 36.6946C38.6423 36.5494 38.4025 36.479 38.1608 36.4961C37.9192 36.5132 37.6918 36.6169 37.5202 36.788C37.3494 36.9587 37.2468 37.186 37.2316 37.427C37.2163 37.6681 37.2896 37.9064 37.4376 38.0973C37.5606 38.257 37.621 38.4561 37.6075 38.6572C37.594 38.8583 37.5075 39.0475 37.3642 39.1893C37.2193 39.3329 37.0271 39.4189 36.8235 39.4311C36.6198 39.4434 36.4187 39.3811 36.2576 39.256C36.0648 39.1056 35.824 39.0304 35.5799 39.0444C35.3359 39.0584 35.1052 39.1606 34.9309 39.332C34.7572 39.5029 34.6525 39.7318 34.6367 39.975C34.621 40.2182 34.6953 40.4587 34.8456 40.6506C34.9715 40.8128 35.0338 41.0154 35.0205 41.2203C35.0072 41.4252 34.9194 41.6181 34.7736 41.7626C34.6138 41.9206 34.3982 42.0092 34.1736 42.0092C33.9489 42.0092 33.7333 41.9206 33.5736 41.7626L33.0776 41.2706L33.2176 41.1306C33.4811 40.8693 33.6903 40.5584 33.8331 40.2158C33.9759 39.8733 34.0494 39.5058 34.0494 39.1346C34.0494 38.7635 33.9759 38.396 33.8331 38.0534C33.6903 37.7109 33.4811 37.3999 33.2176 37.1386C32.7189 36.6422 32.0537 36.3486 31.3509 36.3146C31.3129 35.6296 31.028 34.9816 30.549 34.4903C30.0701 33.9991 29.4294 33.698 28.7456 33.6426C28.691 32.9748 28.3991 32.3486 27.9229 31.8773C27.6127 31.5692 27.2357 31.3366 26.8211 31.1977C26.4065 31.0587 25.9655 31.0171 25.5322 31.076C25.363 30.4623 24.9927 29.9231 24.4807 29.5448C23.9687 29.1665 23.3446 28.9709 22.7082 28.9893C22.607 28.0515 22.7185 27.1029 23.0346 26.2141C23.3506 25.3254 23.863 24.5193 24.5336 23.856C25.1585 23.2352 25.9056 22.751 26.7276 22.4343C27.5495 22.1175 28.4283 21.9751 29.3082 22.016L27.3122 23.5266C26.9879 23.7721 26.7153 24.0793 26.5101 24.4306C26.3049 24.7818 26.1712 25.1702 26.1167 25.5733C26.0621 25.9764 26.0879 26.3863 26.1924 26.7794C26.2969 27.1726 26.4781 27.5411 26.7256 27.864C27.2254 28.5155 27.9626 28.943 28.7764 29.0532C29.5902 29.1633 30.4145 28.9472 31.0696 28.452L33.5882 26.544H36.2202V26.5453ZM28.5189 25.1226L32.7042 21.952H33.3762C33.4594 21.9514 33.5426 21.9536 33.6256 21.9586H35.7936C36.8814 21.9572 37.9492 22.2501 38.884 22.8065C39.8187 23.3628 40.5855 24.1618 41.1029 25.1186C41.7629 26.3453 41.9696 27.756 41.6949 29.112L37.4136 24.8506C37.3204 24.7541 37.2087 24.6774 37.0853 24.6249C36.9618 24.5725 36.8291 24.5454 36.6949 24.5453H33.2536C33.0355 24.5452 32.8234 24.6164 32.6496 24.748L29.8629 26.8586C29.6292 27.035 29.3353 27.1119 29.0452 27.0727C28.755 27.0335 28.4921 26.8814 28.3136 26.6493C28.2264 26.5357 28.1625 26.406 28.1257 26.2676C28.0889 26.1292 28.0798 25.9849 28.0991 25.8429C28.1183 25.701 28.1654 25.5643 28.2377 25.4407C28.3099 25.3171 28.406 25.209 28.5202 25.1226H28.5189ZM24.0469 35.7293C23.9695 35.6525 23.9081 35.5611 23.8661 35.4604C23.8242 35.3597 23.8026 35.2517 23.8026 35.1426C23.8026 35.0336 23.8242 34.9256 23.8661 34.8249C23.9081 34.7242 23.9695 34.6328 24.0469 34.556L25.3229 33.2866C25.4802 33.1311 25.6924 33.0439 25.9136 33.0439C26.1347 33.0439 26.347 33.1311 26.5042 33.2866C26.6587 33.44 26.7465 33.6481 26.7485 33.8658C26.7505 34.0835 26.6666 34.2931 26.5149 34.4493L26.5042 34.46L25.2282 35.728L25.2162 35.74C25.0581 35.8905 24.8477 35.9735 24.6294 35.9715C24.4111 35.9695 24.2022 35.8827 24.0469 35.7293ZM23.3922 31.2373C23.5434 31.3934 23.6268 31.6028 23.6243 31.82C23.6218 32.0373 23.5336 32.2448 23.3789 32.3973L22.1029 33.6666C21.9456 33.8222 21.7334 33.9094 21.5122 33.9094C21.2911 33.9094 21.0788 33.8222 20.9216 33.6666C20.8442 33.5898 20.7827 33.4984 20.7408 33.3977C20.6989 33.297 20.6773 33.189 20.6773 33.08C20.6773 32.9709 20.6989 32.8629 20.7408 32.7622C20.7827 32.6615 20.8442 32.5701 20.9216 32.4933L22.1989 31.2253C22.3562 31.0698 22.5684 30.9826 22.7896 30.9826C23.0107 30.9826 23.223 31.0698 23.3802 31.2253L23.3922 31.2373ZM30.5229 40.9893C30.3656 41.1448 30.1534 41.232 29.9322 41.232C29.7111 41.232 29.4988 41.1448 29.3416 40.9893C29.2642 40.9125 29.2027 40.8211 29.1608 40.7204C29.1189 40.6197 29.0973 40.5117 29.0973 40.4026C29.0973 40.2936 29.1189 40.1856 29.1608 40.0849C29.2027 39.9842 29.2642 39.8928 29.3416 39.816L30.6176 38.548C30.7748 38.3925 30.9871 38.3052 31.2082 38.3052C31.4294 38.3052 31.6416 38.3925 31.7989 38.548C31.8763 38.6248 31.9377 38.7162 31.9797 38.8169C32.0216 38.9176 32.0432 39.0256 32.0432 39.1346C32.0432 39.2437 32.0216 39.3517 31.9797 39.4524C31.9377 39.5531 31.8763 39.6445 31.7989 39.7213L30.5229 40.9893ZM27.8282 38.312C27.6712 38.4678 27.4588 38.5553 27.2376 38.5553C27.0163 38.5553 26.804 38.4678 26.6469 38.312C26.4922 38.1588 26.4042 37.9508 26.402 37.7331C26.3997 37.5154 26.4834 37.3056 26.6349 37.1493L26.6469 37.1386L27.9229 35.8706L27.9336 35.8586C28.0919 35.7079 28.3028 35.6249 28.5213 35.6271C28.7399 35.6293 28.949 35.7167 29.1042 35.8706C29.1816 35.9475 29.2431 36.0389 29.285 36.1396C29.3269 36.2402 29.3485 36.3482 29.3485 36.4573C29.3485 36.5664 29.3269 36.6744 29.285 36.775C29.2431 36.8757 29.1816 36.9671 29.1042 37.044L27.8282 38.312Z" fill="white"/>
</svg>
